<svg viewBox="0 0 62 62" xmlns="http://www.w3.org/2000/svg" xmlns:xlink="http://www.w3.org/1999/xlink" width="62.000000" height="62.000000" fill="none" customFrame="#000000">
	<g id="clock">
		<rect id="Rectangle 6" width="62.000000" height="62.000000" x="0.000000" y="0.000000" fill="rgb(0,174,108)" />
		<g id="ic-clock">
			<path id="Vector" d="M43.2973 19.5702C42.4435 18.7241 41.321 18.2046 40.1249 18.1021C38.9288 17.9996 37.7346 18.3205 36.75 19.0091C39.9151 20.3303 42.5006 22.7488 44.0346 25.8229C44.6267 24.8481 44.8759 23.7024 44.7422 22.569C44.6085 21.4355 44.0998 20.3797 43.2973 19.5702Z" fill="rgb(255,255,255)" fill-rule="nonzero" />
			<path id="Vector" d="M25.4863 19.2053C24.5057 18.4245 23.274 18.0306 22.0237 18.0978C20.7733 18.1651 19.5907 18.689 18.6992 19.5705C17.8149 20.4629 17.2913 21.6517 17.2289 22.9081C17.1666 24.1644 17.57 25.3994 18.3616 26.3754C19.787 23.1957 22.3202 20.6463 25.4863 19.2053Z" fill="rgb(255,255,255)" fill-rule="nonzero" />
			<path id="Vector" d="M31.3314 19.7112C28.8758 19.7163 26.4767 20.4501 24.4364 21.8201C22.3961 23.1901 20.806 25.1349 19.8664 27.4096C18.9268 29.6842 18.6798 32.1868 19.1566 34.602C19.6333 37.0171 20.8125 39.2367 22.5454 40.9811L20.2801 43.2523C20.1978 43.3366 20.1329 43.4362 20.0891 43.5455C20.0453 43.6549 20.0233 43.7719 20.0246 43.8897C20.0258 44.0076 20.0502 44.124 20.0963 44.2325C20.1424 44.3409 20.2094 44.4391 20.2934 44.5216C20.3774 44.604 20.4768 44.6691 20.5859 44.7131C20.6949 44.757 20.8116 44.779 20.9291 44.7778C21.0467 44.7765 21.1628 44.7521 21.271 44.7058C21.3791 44.6596 21.4771 44.5924 21.5593 44.5082L23.9224 42.139C26.0834 43.7785 28.7223 44.6598 31.4322 44.6469C34.1422 44.6341 36.7727 43.7277 38.918 42.0677L41.3522 44.5082C41.5221 44.6541 41.7407 44.7304 41.9643 44.7217C42.1879 44.7131 42.4 44.6201 42.5582 44.4615C42.7164 44.3029 42.8091 44.0902 42.8177 43.8661C42.8264 43.6419 42.7503 43.4227 42.6048 43.2523L40.2151 40.892C41.9236 39.1373 43.0783 36.9165 43.5346 34.5074C43.9909 32.0982 43.7286 29.6077 42.7805 27.3472C41.8324 25.0867 40.2406 23.1567 38.2042 21.7985C36.1678 20.4403 33.7772 19.7143 31.3314 19.7112ZM37.9675 35.2361C37.8657 35.4482 37.6843 35.6114 37.4629 35.6898C37.2415 35.7683 36.9981 35.7557 36.786 35.6547L30.443 32.5729L30.443 24.7793C30.443 24.5431 30.5366 24.3165 30.7032 24.1495C30.8698 23.9824 31.0958 23.8886 31.3314 23.8886C31.567 23.8886 31.793 23.9824 31.9596 24.1495C32.1262 24.3165 32.2197 24.5431 32.2197 24.7793L32.2197 31.4595L37.55 34.0514C37.6563 34.1004 37.752 34.1699 37.8314 34.2559C37.9109 34.342 37.9726 34.443 38.0131 34.5531C38.0535 34.6632 38.0719 34.7802 38.0671 34.8974C38.0623 35.0146 38.0345 35.1297 37.9853 35.2361L37.9675 35.2361Z" fill="rgb(255,255,255)" fill-rule="nonzero" />
		</g>
	</g>
</svg>
