<svg viewBox="0 0 62 62" xmlns="http://www.w3.org/2000/svg" xmlns:xlink="http://www.w3.org/1999/xlink" width="62.000000" height="62.000000" fill="none" customFrame="#000000">
	<g id="game">
		<rect id="Rectangle 6" width="62.000000" height="62.000000" x="0.000000" y="0.000000" fill="rgb(0,174,108)" />
		<path id="Vector" d="M44.0389 30.3752C42.8213 24.7461 40.9887 21.7417 38.2703 20.921C37.6989 20.7496 37.1062 20.664 36.5107 20.6668C35.7236 20.6668 35.0381 20.8629 34.313 21.0707C33.4392 21.3214 32.4466 21.6061 30.9993 21.6061C29.5519 21.6061 28.5587 21.3219 27.6832 21.0713C26.9575 20.8629 26.2726 20.6668 25.4878 20.6668C24.872 20.6646 24.259 20.75 23.6662 20.9204C20.9621 21.7376 19.1307 24.7408 17.8953 30.3717C16.5668 36.4311 17.2207 40.2568 19.729 41.1444C20.0728 41.2683 20.4345 41.3322 20.7991 41.3334C22.5174 41.3334 23.8953 39.8699 24.8368 38.6718C25.9006 37.3157 27.1458 36.6277 30.9993 36.6277C34.441 36.6277 35.8654 37.105 37.0957 38.6718C37.869 39.6568 38.5999 40.346 39.329 40.7798C40.2986 41.3563 41.2677 41.4843 42.2087 41.1538C43.691 40.6366 44.5407 39.2694 44.7348 37.0891C44.8823 35.4173 44.655 33.2212 44.0389 30.3752ZM28.2435 30.0594L26.4064 30.0594L26.4064 31.9379C26.4064 32.187 26.3096 32.4259 26.1374 32.6021C25.9651 32.7782 25.7314 32.8772 25.4878 32.8772C25.2442 32.8772 25.0106 32.7782 24.8383 32.6021C24.666 32.4259 24.5693 32.187 24.5693 31.9379L24.5693 30.0594L22.7321 30.0594C22.4885 30.0594 22.2548 29.9604 22.0826 29.7843C21.9103 29.6081 21.8135 29.3692 21.8135 29.1201C21.8135 28.871 21.9103 28.6321 22.0826 28.456C22.2548 28.2798 22.4885 28.1809 22.7321 28.1809L24.5693 28.1809L24.5693 26.3024C24.5693 26.0533 24.666 25.8144 24.8383 25.6382C25.0106 25.4621 25.2442 25.3631 25.4878 25.3631C25.7314 25.3631 25.9651 25.4621 26.1374 25.6382C26.3096 25.8144 26.4064 26.0533 26.4064 26.3024L26.4064 28.1809L28.2435 28.1809C28.4872 28.1809 28.7208 28.2798 28.8931 28.456C29.0653 28.6321 29.1621 28.871 29.1621 29.1201C29.1621 29.3692 29.0653 29.6081 28.8931 29.7843C28.7208 29.9604 28.4872 30.0594 28.2435 30.0594ZM33.066 30.2942C32.8389 30.2942 32.6169 30.2253 32.4281 30.0963C32.2393 29.9673 32.0921 29.784 32.0052 29.5694C31.9183 29.3549 31.8956 29.1188 31.9399 28.8911C31.9842 28.6633 32.0935 28.4541 32.2541 28.2899C32.4147 28.1257 32.6193 28.0139 32.842 27.9686C33.0648 27.9233 33.2956 27.9466 33.5054 28.0354C33.7152 28.1243 33.8946 28.2748 34.0207 28.4679C34.1469 28.6609 34.2143 28.8879 34.2143 29.1201C34.2143 29.4315 34.0933 29.7301 33.8779 29.9503C33.6626 30.1705 33.3706 30.2942 33.066 30.2942ZM35.5921 32.8772C35.3649 32.8772 35.1428 32.8082 34.9539 32.6791C34.765 32.5499 34.6178 32.3664 34.531 32.1517C34.4442 31.937 34.4216 31.7008 34.4662 31.473C34.5107 31.2451 34.6204 31.0359 34.7812 30.8719C34.9421 30.7078 35.1469 30.5962 35.3699 30.5512C35.5928 30.5063 35.8237 30.5299 36.0335 30.6192C36.2433 30.7085 36.4224 30.8595 36.5482 31.0529C36.674 31.2464 36.7409 31.4737 36.7403 31.706C36.7396 32.0169 36.6183 32.3148 36.403 32.5343C36.1878 32.7539 35.8961 32.8772 35.5921 32.8772ZM35.5921 27.7112C35.365 27.7112 35.143 27.6424 34.9542 27.5134C34.7654 27.3844 34.6182 27.201 34.5313 26.9865C34.4444 26.7719 34.4217 26.5359 34.466 26.3081C34.5103 26.0804 34.6196 25.8712 34.7802 25.707C34.9408 25.5428 35.1454 25.431 35.3681 25.3857C35.5908 25.3404 35.8217 25.3636 36.0315 25.4525C36.2413 25.5413 36.4206 25.6918 36.5468 25.8849C36.673 26.078 36.7403 26.305 36.7403 26.5372C36.7403 26.8486 36.6194 27.1472 36.404 27.3674C36.1887 27.5875 35.8966 27.7112 35.5921 27.7112ZM38.1182 30.2942C37.8911 30.2942 37.6691 30.2253 37.4803 30.0963C37.2914 29.9673 37.1443 29.784 37.0574 29.5694C36.9705 29.3549 36.9477 29.1188 36.992 28.8911C37.0363 28.6633 37.1457 28.4541 37.3063 28.2899C37.4669 28.1257 37.6714 28.0139 37.8942 27.9686C38.1169 27.9233 38.3478 27.9466 38.5576 28.0354C38.7674 28.1243 38.9467 28.2748 39.0729 28.4679C39.1991 28.6609 39.2664 28.8879 39.2664 29.1201C39.2664 29.4315 39.1454 29.7301 38.9301 29.9503C38.7148 30.1705 38.4227 30.2942 38.1182 30.2942Z" fill="rgb(255,255,255)" fill-rule="nonzero" />
	</g>
</svg>
