<svg viewBox="0 0 62 62" xmlns="http://www.w3.org/2000/svg" xmlns:xlink="http://www.w3.org/1999/xlink" width="62.000000" height="62.000000" fill="none" customFrame="#000000">
	<g id="snack">
		<rect id="Rectangle 6" width="62.000000" height="62.000000" x="0.000000" y="0.000000" fill="rgb(0,174,108)" />
		<g id="snack">
			<path id="Vector" d="M38.3464 36.509L26.8868 36.509L24.5333 38.5181L22.1798 36.509L17.2227 36.509L17.2227 37.8867C17.2227 39.6426 18.4355 41.073 19.9354 41.1011C20.0749 41.9691 20.4125 42.7532 20.9205 43.3668C21.6718 44.2743 22.7642 44.7748 23.996 44.7748L31.573 44.7748C32.8048 44.7748 33.8972 44.2743 34.6486 43.3656C35.1566 42.752 35.4941 41.9679 35.6336 41.1C36.4303 41.0856 37.1461 40.6752 37.6426 40.0306C38.1064 39.4127 38.3537 38.6592 38.3464 37.8867L38.3464 36.509Z" fill="rgb(255,255,255)" fill-rule="nonzero" />
			<path id="Vector" d="M22.3314 34.6723L24.5316 36.2904L26.7513 34.6723L38.3464 34.6723L38.3464 34.2131C38.3457 33.684 38.1627 33.1713 37.8281 32.7614C37.4935 32.3515 37.0278 32.0695 36.5095 31.963C36.4625 30.2587 35.7633 28.8323 34.4712 27.83C33.2761 26.8979 31.6792 26.4065 29.851 26.4065L25.7181 26.4065C21.8021 26.4065 19.1496 28.6319 19.0595 31.963C18.5412 32.0695 18.0755 32.3515 17.741 32.7614C17.4064 33.1713 17.2233 33.684 17.2227 34.2131L17.2227 34.6723L22.3314 34.6723Z" fill="rgb(255,255,255)" fill-rule="nonzero" />
			<path id="Vector" d="M42.8851 21.8143L38.6035 21.8143L39.1156 19.7673L41.6751 18.8868L41.1011 17.2222L37.5422 18.3702L36.7104 21.8143L28.2432 21.8143L28.2432 23.6511L29.3194 23.6511L29.4262 24.5696L29.8504 24.5696C32.0891 24.5696 34.0786 25.1952 35.5974 26.3788C36.4422 27.0298 37.1271 27.8652 37.5996 28.8213C37.8908 29.4144 38.0981 30.0452 38.2155 30.6954C39.0709 31.2221 39.7051 32.0422 39.9998 33.0025C40.2944 33.9628 40.2292 34.9975 39.8164 35.9132C40.0583 36.5431 40.1824 37.212 40.1827 37.8867C40.1827 39.169 39.7464 40.3911 38.9543 41.3279C38.4641 41.9119 37.8361 42.3646 37.1272 42.6453C36.8856 43.3338 36.5256 43.9748 36.0635 44.5395C35.9958 44.621 35.9263 44.7008 35.8552 44.7777L40.1827 44.7777C41.1011 44.7777 41.5029 44.3185 41.6177 43.4575L43.7071 23.654L44.7748 23.654L44.7748 21.8143L42.8851 21.8143Z" fill="rgb(255,255,255)" fill-rule="nonzero" />
		</g>
	</g>
</svg>
