<svg width="22" height="23" viewBox="0 0 22 23" fill="none" xmlns="http://www.w3.org/2000/svg">
<path d="M1.53817 21L2.54939 16.305C1.24968 14.255 0.742654 11.8012 1.12345 9.40399C1.50425 7.00675 2.74669 4.83084 4.61768 3.2845C6.48867 1.73816 8.85961 0.92766 11.2857 1.00507C13.7117 1.08249 16.0262 2.04249 17.7948 3.70497C19.5634 5.36745 20.6646 7.61815 20.8917 10.0348C21.1189 12.4514 20.4565 14.8679 19.0287 16.8309C17.601 18.7939 15.506 20.1684 13.1369 20.6966C10.7677 21.2248 8.28729 20.8704 6.16089 19.6999L1.53817 21Z" fill="#25D366" stroke="white" stroke-width="2"/>
<path d="M13.8168 12.3428C13.6002 12.1984 13.3835 12.1261 13.1668 12.4151L12.3 13.5707C12.0833 13.7152 11.9389 13.7874 11.6499 13.643C10.5665 13.0651 9.04966 12.4151 7.74952 10.2482C7.67729 9.95925 7.82175 9.81479 7.96621 9.67033L8.61628 8.65911C8.76074 8.51465 8.68851 8.37019 8.61628 8.22573L7.74952 6.13106C7.53283 5.55322 7.31614 5.62545 7.09945 5.62545H6.52161C6.37715 5.62545 6.08823 5.69768 5.79931 5.9866C4.21025 7.57566 4.86032 9.81479 6.016 11.2594C6.23269 11.5483 7.67729 14.1486 10.7832 15.521C13.0945 16.5322 13.6002 16.3877 14.2502 16.2433C15.0448 16.171 15.8393 15.521 16.2004 14.8709C16.2727 14.6542 16.6338 13.7152 16.3449 13.5707" fill="white"/>
</svg>
