<svg viewBox="0 0 34 34" xmlns="http://www.w3.org/2000/svg" xmlns:xlink="http://www.w3.org/1999/xlink" width="34.000000" height="34.000000" fill="none">
	<rect id="cup" width="34.000000" height="34.000000" x="0.000000" y="0.000000" fill="rgb(255,255,255)" fill-opacity="0" />
	<path id="Vector" d="M22.6663 18.4167L22.6663 7.08333L8.49967 7.08333L8.49967 18.4167C8.49967 19.9815 9.7682 21.25 11.333 21.25L19.833 21.25C21.3979 21.25 22.6663 19.9815 22.6663 18.4167ZM7.08301 4.25L28.333 4.25C29.8979 4.25 31.1663 5.51853 31.1663 7.08333L31.1663 11.3333C31.1663 12.8981 29.8979 14.1667 28.333 14.1667L25.4997 14.1667L25.4997 18.4167C25.4997 21.5462 22.9626 24.0833 19.833 24.0833L11.333 24.0833C8.20339 24.0833 5.66634 21.5462 5.66634 18.4167L5.66634 5.66667C5.66634 4.88427 6.30061 4.25 7.08301 4.25ZM25.4997 7.08333L25.4997 11.3333L28.333 11.3333L28.333 7.08333L25.4997 7.08333ZM2.83301 26.9167L28.333 26.9167L28.333 29.75L2.83301 29.75L2.83301 26.9167Z" fill="rgb(0,174,108)" fill-rule="nonzero" />
</svg>
