<svg viewBox="0 0 34 34" xmlns="http://www.w3.org/2000/svg" xmlns:xlink="http://www.w3.org/1999/xlink" width="34.000000" height="34.000000" fill="none">
	<rect id="lock" width="34.000000" height="34.000000" x="0.000000" y="0.000000" fill="rgb(255,255,255)" fill-opacity="0" />
	<path id="Vector" d="M25.5 11.3334L28.3333 11.3334C29.1158 11.3334 29.75 11.9677 29.75 12.7501L29.75 29.7501C29.75 30.5325 29.1158 31.1667 28.3333 31.1667L5.66667 31.1667C4.88427 31.1667 4.25 30.5325 4.25 29.7501L4.25 12.7501C4.25 11.9677 4.88427 11.3334 5.66667 11.3334L8.5 11.3334L8.5 9.91675C8.5 5.22233 12.3056 1.41675 17 1.41675C21.6944 1.41675 25.5 5.22233 25.5 9.91675L25.5 11.3334ZM7.08333 14.1667L7.08333 28.3334L26.9167 28.3334L26.9167 14.1667L7.08333 14.1667ZM15.5833 19.8334L18.4167 19.8334L18.4167 22.6667L15.5833 22.6667L15.5833 19.8334ZM9.91667 19.8334L12.75 19.8334L12.75 22.6667L9.91667 22.6667L9.91667 19.8334ZM21.25 19.8334L24.0833 19.8334L24.0833 22.6667L21.25 22.6667L21.25 19.8334ZM22.6667 11.3334L22.6667 9.91675C22.6667 6.78713 20.1296 4.25008 17 4.25008C13.8704 4.25008 11.3333 6.78713 11.3333 9.91675L11.3333 11.3334L22.6667 11.3334Z" fill="rgb(0,174,108)" fill-rule="nonzero" />
</svg>
