<svg viewBox="0 0 34 34" xmlns="http://www.w3.org/2000/svg" xmlns:xlink="http://www.w3.org/1999/xlink" width="34.000000" height="34.000000" fill="none">
	<rect id="printer" width="34.000000" height="34.000000" x="0.000000" y="0.000000" fill="rgb(255,255,255)" fill-opacity="0" />
	<path id="Vector" d="M24.083 2.83325C24.8654 2.83325 25.4997 3.46752 25.4997 4.24992L25.4997 9.91659L29.7497 9.91659C30.5321 9.91659 31.1663 10.5509 31.1663 11.3333L31.1663 25.4999C31.1663 26.2823 30.5321 26.9166 29.7497 26.9166L25.4997 26.9166L25.4997 29.7499C25.4997 30.5323 24.8654 31.1666 24.083 31.1666L9.91634 31.1666C9.13395 31.1666 8.49967 30.5323 8.49967 29.7499L8.49967 26.9166L4.24967 26.9166C3.46728 26.9166 2.83301 26.2823 2.83301 25.4999L2.83301 11.3333C2.83301 10.5509 3.46728 9.91659 4.24967 9.91659L8.49967 9.91659L8.49967 4.24992C8.49967 3.46752 9.13395 2.83325 9.91634 2.83325L24.083 2.83325ZM22.6663 24.0833L11.333 24.0833L11.333 28.3333L22.6663 28.3333L22.6663 24.0833ZM28.333 12.7499L5.66634 12.7499L5.66634 24.0833L8.49967 24.0833L8.49967 22.6666C8.49967 21.8842 9.13395 21.2499 9.91634 21.2499L24.083 21.2499C24.8654 21.2499 25.4997 21.8842 25.4997 22.6666L25.4997 24.0833L28.333 24.0833L28.333 12.7499ZM11.333 14.1666L11.333 16.9999L7.08301 16.9999L7.08301 14.1666L11.333 14.1666ZM22.6663 5.66659L11.333 5.66659L11.333 9.91659L22.6663 9.91659L22.6663 5.66659Z" fill="rgb(0,174,108)" fill-rule="nonzero" />
</svg>
