<svg viewBox="0 0 34 34" xmlns="http://www.w3.org/2000/svg" xmlns:xlink="http://www.w3.org/1999/xlink" width="34.000000" height="34.000000" fill="none">
	<rect id="vidicon" width="34.000000" height="34.000000" x="0.000000" y="0.000000" fill="rgb(255,255,255)" fill-opacity="0" />
	<path id="Vector" d="M24.0837 13.0334L31.4692 7.86359C31.7896 7.63924 32.2313 7.71719 32.4556 8.03768C32.5389 8.15674 32.5837 8.29855 32.5837 8.44388L32.5837 25.5563C32.5837 25.9475 32.2665 26.2647 31.8753 26.2647C31.73 26.2647 31.5882 26.2199 31.4692 26.1366L24.0837 20.9667L24.0837 26.9167C24.0837 27.6992 23.4494 28.3334 22.667 28.3334L2.83366 28.3334C2.05126 28.3334 1.41699 27.6992 1.41699 26.9167L1.41699 7.08341C1.41699 6.30102 2.05126 5.66675 2.83366 5.66675L22.667 5.66675C23.4494 5.66675 24.0837 6.30102 24.0837 7.08341L24.0837 13.0334ZM24.0837 17.5082L29.7503 21.4749L29.7503 12.5253L24.0837 16.4919L24.0837 17.5082ZM4.25033 8.50008L4.25033 25.5001L21.2503 25.5001L21.2503 8.50008L4.25033 8.50008ZM7.08366 11.3334L9.91699 11.3334L9.91699 14.1667L7.08366 14.1667L7.08366 11.3334Z" fill="rgb(0,174,108)" fill-rule="nonzero" />
</svg>
