<svg viewBox="0 0 117.371 16" xmlns="http://www.w3.org/2000/svg" xmlns:xlink="http://www.w3.org/1999/xlink" width="117.371094" height="16.000000" fill="none" customFrame="#000000">
	<path id="logo-footer" d="M111.674 16C110.532 16 109.508 15.8146 108.603 15.4437C107.698 15.0728 106.971 14.5239 106.422 13.7969C105.888 13.07 105.606 12.1947 105.577 11.1711L109.627 11.1711C109.686 11.7497 109.886 12.1947 110.228 12.5063C110.569 12.803 111.014 12.9513 111.563 12.9513C112.126 12.9513 112.572 12.8252 112.898 12.573C113.224 12.306 113.388 11.9425 113.388 11.4826Q113.388 11.1483 113.254 10.8809Q113.156 10.6855 112.987 10.5257C112.735 10.2735 112.416 10.0658 112.03 9.90264C111.659 9.73946 111.125 9.554 110.428 9.34632C109.419 9.03478 108.596 8.72322 107.958 8.41168C107.32 8.10014 106.771 7.64024 106.311 7.03198C105.851 6.42374 105.621 5.63004 105.621 4.6509C105.621 3.19704 106.148 2.06212 107.201 1.24618C108.254 0.4154 109.627 -0 111.318 -0C113.039 0 114.426 0.4154 115.479 1.24618C116.533 2.06212 117.096 3.20446 117.171 4.67316L113.054 4.67316Q113.022 4.14148 112.76 3.77462Q112.65 3.61944 112.497 3.49374C112.156 3.19704 111.719 3.04868 111.184 3.04868C110.725 3.04868 110.354 3.17478 110.072 3.42698C109.79 3.66434 109.649 4.01298 109.649 4.47288C109.649 4.97728 109.886 5.37042 110.361 5.6523C110.836 5.93416 111.578 6.2383 112.586 6.56468C113.595 6.90588 114.411 7.23226 115.034 7.54382C115.672 7.85536 116.221 8.30784 116.681 8.90126C117.141 9.49466 117.371 10.2587 117.371 11.1933C117.371 12.0835 117.141 12.892 116.681 13.6189C116.236 14.3459 115.583 14.9244 114.723 15.3547C113.862 15.7849 112.846 16 111.674 16ZM20.9339 14.9764C22.1653 15.6588 23.5153 16 24.984 16C26.4527 16 27.7953 15.6588 29.0118 14.9764C30.2283 14.2939 31.1926 13.3445 31.9047 12.128C32.6168 10.8966 32.9729 9.51692 32.9729 7.98888C32.9729 6.46082 32.6168 5.08854 31.9047 3.87204C31.2075 2.65554 30.2432 1.70608 29.0118 1.02364C27.7953 0.34122 26.4527 0 24.984 0C23.5153 0 22.1653 0.34122 20.9339 1.02364C19.7174 1.70608 18.7457 2.65554 18.0188 3.87204C17.3067 5.08854 16.9506 6.46082 16.9506 7.98888C16.9506 9.51692 17.3067 10.8966 18.0188 12.128C18.7457 13.3445 19.7174 14.2939 20.9339 14.9764ZM61.8327 14.9764C63.0641 15.6588 64.4141 16 65.8828 16C67.3515 16 68.6941 15.6588 69.9106 14.9764C71.1271 14.2939 72.0914 13.3445 72.8035 12.128C73.5156 10.8966 73.8717 9.51692 73.8717 7.98888C73.8717 6.46082 73.5156 5.08854 72.8035 3.87204C72.1063 2.65554 71.142 1.70608 69.9106 1.02364C68.6941 0.34122 67.3515 0 65.8828 0C64.4141 0 63.0641 0.34122 61.8327 1.02364C60.6162 1.70608 59.6445 2.65554 58.9176 3.87204C58.2055 5.08854 57.8494 6.46082 57.8494 7.98888C57.8494 9.51692 58.2055 10.8966 58.9176 12.128C59.6445 13.3445 60.6162 14.2939 61.8327 14.9764ZM1.0014 3.8943C0.3338 5.09596 0 6.46824 0 8.01112Q0 10.1786 0.87832 11.8971Q0.93784 12.0136 1.0014 12.128C1.66898 13.3296 2.5962 14.2717 3.78304 14.9541Q4.01414 15.0825 4.25296 15.1944L4.25666 15.1962Q4.26068 15.198 4.26468 15.1999Q5.8837 15.9555 7.85536 15.9555C9.70978 15.9555 11.2972 15.4733 12.6175 14.509C13.9379 13.5299 14.8206 12.1947 15.2656 10.5035L11.0821 10.5035C10.7705 11.1562 10.3255 11.6532 9.74688 11.9944C9.18312 12.3357 8.53778 12.5063 7.81084 12.5063C6.63884 12.5063 5.68938 12.0983 4.96244 11.2823C4.23552 10.4664 3.87204 9.37598 3.87204 8.01112C3.87204 6.64626 4.23552 5.55586 4.96244 4.73992C5.68938 3.92396 6.63884 3.516 7.81084 3.516C8.53778 3.516 9.18312 3.6866 9.74688 4.02782C10.3255 4.36904 10.7705 4.86602 11.0821 5.51878L15.2656 5.51878C14.8206 3.82754 13.9379 2.49236 12.6175 1.51322C11.2972 0.53408 9.70978 0.0445 7.85536 0.0445C6.34214 0.0445 4.9847 0.38572 3.78304 1.06814C2.5962 1.73574 1.66898 2.6778 1.0014 3.8943ZM52.5141 15.8442L56.5864 0.22254L52.4918 0.22254L50.222 11.5939L47.5516 0.22254L43.368 0.22254L40.5864 11.5939L38.3388 0.22254L34.2665 0.22254L38.2276 15.8442L42.834 15.8442L45.4153 5.56328L47.9077 15.8442L52.5141 15.8442ZM94.3107 8.94576L99.5624 15.8442L104.213 15.8442L97.9379 7.8776L103.991 0.22254L99.5179 0.22254L94.3107 7.0765L94.3107 0.22254L90.5054 0.22254L90.5054 15.8442L94.3107 15.8442L94.3107 8.94576ZM80.7064 9.94714L83.9553 15.8442L88.2502 15.8442L84.6452 9.65786C85.7875 9.31664 86.6479 8.73806 87.2265 7.92212C87.8199 7.10616 88.1167 6.17896 88.1167 5.14048C88.1167 4.22068 87.9015 3.3899 87.4713 2.64812C87.0411 1.89152 86.3883 1.2981 85.513 0.86788C84.6526 0.43764 83.6067 0.22254 82.3753 0.22254L75.9887 0.22254L75.9887 15.8442L79.794 15.8442L79.794 9.94714L80.7064 9.94714ZM82.1528 7.25452L79.794 7.25452L79.794 3.38248L82.1528 3.38248C82.8501 3.38248 83.3693 3.55308 83.7105 3.8943C84.0666 4.23552 84.2446 4.70282 84.2446 5.29624C84.2446 5.91934 84.0666 6.40148 83.7105 6.7427C83.3693 7.08392 82.8501 7.25452 82.1528 7.25452ZM27.9659 11.2823C27.2242 12.1131 26.2302 12.5285 24.984 12.5285C23.723 12.5285 22.7142 12.1205 21.9576 11.3046C21.2158 10.4738 20.8449 9.36856 20.8449 7.98888C20.8449 6.59434 21.2158 5.4891 21.9576 4.67316C22.7142 3.8572 23.723 3.44924 24.984 3.44924C26.2302 3.44924 27.2242 3.86462 27.9659 4.6954C28.7225 5.51136 29.1008 6.60918 29.1008 7.98888C29.1008 9.35374 28.7225 10.4516 27.9659 11.2823ZM68.8647 11.2823C68.123 12.1131 67.129 12.5285 65.8828 12.5285C64.6218 12.5285 63.613 12.1205 62.8564 11.3046C62.1146 10.4738 61.7437 9.36856 61.7437 7.98888C61.7437 6.59434 62.1146 5.4891 62.8564 4.67316C63.613 3.8572 64.6218 3.44924 65.8828 3.44924C67.129 3.44924 68.123 3.86462 68.8647 4.6954C69.6213 5.51136 69.9996 6.60918 69.9996 7.98888C69.9996 9.35374 69.6213 10.4516 68.8647 11.2823Z" fill="rgb(255,255,255)" fill-rule="evenodd" />
</svg>
