<svg viewBox="0 0 168.779 23.008" xmlns="http://www.w3.org/2000/svg" xmlns:xlink="http://www.w3.org/1999/xlink" width="168.779297" height="23.008001" fill="none" customFrame="#000000">
	<path id="CoWorks" d="M160.587 23.008C158.945 23.008 157.473 22.7413 156.171 22.208C154.87 21.6747 153.825 20.8853 153.035 19.84C152.267 18.7947 151.862 17.536 151.819 16.064L157.643 16.064C157.729 16.896 158.017 17.536 158.507 17.984C158.998 18.4107 159.638 18.624 160.427 18.624C161.238 18.624 161.878 18.4427 162.347 18.08C162.817 17.696 163.051 17.1733 163.051 16.512C163.051 15.9573 162.859 15.4987 162.475 15.136C162.113 14.7733 161.654 14.4747 161.099 14.24C160.566 14.0053 159.798 13.7387 158.795 13.44C157.345 12.992 156.161 12.544 155.243 12.096C154.326 11.648 153.537 10.9867 152.875 10.112C152.214 9.23734 151.883 8.096 151.883 6.688C151.883 4.59734 152.641 2.96534 154.155 1.792C155.67 0.59734 157.643 -0 160.075 -0C162.55 0 164.545 0.59734 166.059 1.792C167.574 2.96534 168.385 4.608 168.491 6.72L162.571 6.72C162.529 5.99466 162.262 5.42934 161.771 5.024C161.281 4.59734 160.651 4.384 159.883 4.384C159.222 4.384 158.689 4.56534 158.283 4.928C157.878 5.26934 157.675 5.77066 157.675 6.432C157.675 7.15734 158.017 7.72266 158.699 8.128C159.382 8.53334 160.449 8.97066 161.899 9.44C163.35 9.93066 164.523 10.4 165.419 10.848C166.337 11.296 167.126 11.9467 167.787 12.8C168.449 13.6533 168.779 14.752 168.779 16.096C168.779 17.376 168.449 18.5387 167.787 19.584C167.147 20.6293 166.209 21.4613 164.971 22.08C163.734 22.6987 162.273 23.008 160.587 23.008ZM30.103 21.536C31.8737 22.5173 33.815 23.008 35.927 23.008C38.039 23.008 39.9697 22.5173 41.719 21.536C43.4683 20.5547 44.855 19.1893 45.879 17.44C46.903 15.6693 47.415 13.6853 47.415 11.488C47.415 9.29066 46.903 7.31734 45.879 5.568C44.8763 3.81866 43.4897 2.45334 41.719 1.472C39.9697 0.49066 38.039 0 35.927 0C33.815 0 31.8737 0.49066 30.103 1.472C28.3537 2.45334 26.9563 3.81866 25.911 5.568C24.887 7.31734 24.375 9.29066 24.375 11.488Q24.375 13.999 25.2665 16.1386L25.2665 16.1387Q25.5452 16.8075 25.911 17.44C26.9563 19.1893 28.3537 20.5547 30.103 21.536ZM88.9155 21.536C90.6862 22.5173 92.6275 23.008 94.7395 23.008C96.8515 23.008 98.7822 22.5173 100.531 21.536C102.281 20.5547 103.667 19.1893 104.691 17.44Q105.057 16.8075 105.336 16.1387Q106.228 13.9991 106.228 11.488C106.228 9.29066 105.715 7.31734 104.691 5.568C103.689 3.81866 102.302 2.45334 100.531 1.472C98.7822 0.49066 96.8515 0 94.7395 0C92.6275 0 90.6862 0.49066 88.9155 1.472C87.1662 2.45334 85.7688 3.81866 84.7235 5.568C83.6995 7.31734 83.1875 9.29066 83.1875 11.488C83.1875 13.6853 83.6995 15.6693 84.7235 17.44C85.7688 19.1893 87.1662 20.5547 88.9155 21.536ZM1.44 5.6C0.48 7.328 0 9.30134 0 11.52C0 13.7387 0.48 15.712 1.44 17.44C2.4 19.168 3.73334 20.5227 5.44 21.504C7.168 22.464 9.12 22.944 11.296 22.944C13.9627 22.944 16.2453 22.2507 18.144 20.864C20.0427 19.456 21.312 17.536 21.952 15.104L15.936 15.104C15.488 16.0427 14.848 16.7573 14.016 17.248C13.2053 17.7387 12.2773 17.984 11.232 17.984C9.54666 17.984 8.18134 17.3973 7.136 16.224C6.09066 15.0507 5.568 13.4827 5.568 11.52C5.568 9.55734 6.09066 7.98934 7.136 6.816C8.18134 5.64266 9.54666 5.056 11.232 5.056C12.2773 5.056 13.2053 5.30134 14.016 5.792C14.848 6.28266 15.488 6.99734 15.936 7.936L21.952 7.936C21.312 5.504 20.0427 3.584 18.144 2.176C16.2453 0.768 13.9627 0.064 11.296 0.064C9.12 0.064 7.168 0.55466 5.44 1.536C3.73334 2.496 2.4 3.85066 1.44 5.6ZM75.5153 22.784L81.3713 0.32L75.4833 0.32L72.2193 16.672L68.3793 0.32L62.3633 0.32L58.3633 16.672L55.1313 0.32L49.2753 0.32L54.9713 22.784L61.5953 22.784L65.3073 8L68.8913 22.784L75.5153 22.784ZM135.619 12.864L143.171 22.784L149.859 22.784L140.835 11.328L149.539 0.32L143.107 0.32L135.619 10.176L135.619 0.32L130.147 0.32L130.147 22.784L135.619 22.784L135.619 12.864ZM116.056 14.304L120.728 22.784L126.904 22.784L121.72 13.888C123.362 13.3973 124.6 12.5653 125.432 11.392C126.285 10.2187 126.712 8.88534 126.712 7.392C126.712 6.06934 126.402 4.87466 125.784 3.808C125.165 2.72 124.226 1.86666 122.968 1.248C121.73 0.62934 120.226 0.32 118.456 0.32L109.272 0.32L109.272 22.784L114.744 22.784L114.744 14.304L116.056 14.304ZM118.136 10.432L114.744 10.432L114.744 4.864L118.136 4.864C119.138 4.864 119.885 5.10934 120.376 5.6C120.888 6.09066 121.144 6.76266 121.144 7.616C121.144 8.512 120.888 9.20534 120.376 9.696C119.885 10.1867 119.138 10.432 118.136 10.432ZM40.215 16.224C39.1483 17.4187 37.719 18.016 35.927 18.016C34.1137 18.016 32.663 17.4293 31.575 16.256C30.5083 15.0613 29.975 13.472 29.975 11.488C29.975 9.48266 30.5083 7.89334 31.575 6.72C32.663 5.54666 34.1137 4.96 35.927 4.96C37.719 4.96 39.1483 5.55734 40.215 6.752C41.303 7.92534 41.847 9.504 41.847 11.488C41.847 13.4507 41.303 15.0293 40.215 16.224ZM99.0275 16.224C97.9608 17.4187 96.5315 18.016 94.7395 18.016C92.9262 18.016 91.4755 17.4293 90.3875 16.256C89.3208 15.0613 88.7875 13.472 88.7875 11.488C88.7875 9.48266 89.3208 7.89334 90.3875 6.72C91.4755 5.54666 92.9262 4.96 94.7395 4.96C96.5315 4.96 97.9608 5.55734 99.0275 6.752C100.115 7.92534 100.66 9.504 100.66 11.488C100.66 13.4507 100.115 15.0293 99.0275 16.224Z" fill="rgb(0,0,0)" fill-rule="evenodd" />
</svg>
