<svg viewBox="0 0 48 48" xmlns="http://www.w3.org/2000/svg" xmlns:xlink="http://www.w3.org/1999/xlink" width="48.000000" height="48.000000" fill="none" customFrame="#000000">
	<g id="mail">
		<circle id="Ellipse 229" cx="24.5" cy="24" r="19" fill="rgb(255,255,255)" />
		<path id="Email" d="M48 24C48 37.2547 37.2547 48 24 48C10.7452 48 0 37.2547 0 24C0 10.7452 10.7452 0 24 0C37.2547 0 48 10.7452 48 24ZM12.012 16.8C12.012 15.48 13.08 14.4 14.4 14.4L33.6 14.4C34.92 14.4 36 15.48 36 16.8L36 31.2C36 32.52 34.92 33.6 33.6 33.6L14.4 33.6C13.08 33.6 12 32.52 12 31.2L12.012 16.8ZM24 25.2L14.4 19.1999L14.4 31.2L33.6 31.2L33.6 19.1999L24 25.2ZM24 22.8L14.4 16.8L33.6 16.8L24 22.8Z" fill="rgb(37,37,37)" fill-rule="evenodd" />
	</g>
</svg>
