<svg viewBox="0 0 48 48" xmlns="http://www.w3.org/2000/svg" xmlns:xlink="http://www.w3.org/1999/xlink" width="48.000000" height="48.000000" fill="none">
	<rect id="whatsApp" width="48.000000" height="48.000000" x="0.000000" y="0.000000" fill="rgb(255,255,255)" fill-opacity="0" />
	<path id="Vector" d="M40.8 0L7.2 0C3.22355 0 0 3.22355 0 7.2L0 40.8C0 44.7765 3.22355 48 7.2 48L40.8 48C44.7765 48 48 44.7765 48 40.8L48 7.2C48 3.22355 44.7765 0 40.8 0Z" opacity="0" fill="rgb(37,211,102)" fill-rule="evenodd" />
	<circle id="Ellipse 1" cx="24" cy="24" r="24" fill="rgb(37,37,37)" />
	<path id="Vector" d="M11.6985 35.9587L13.011 29.865C11.3241 27.2042 10.666 24.0193 11.1602 20.9079C11.6545 17.7964 13.2671 14.9722 15.6955 12.9651C18.1239 10.9581 21.2013 9.90611 24.3502 10.0066C27.499 10.1071 30.503 11.3531 32.7986 13.5109C35.0941 15.6687 36.5234 18.5899 36.8182 21.7266C37.1131 24.8632 36.2533 27.9997 34.4002 30.5475C32.547 33.0953 29.8279 34.8794 26.7529 35.565C23.6779 36.2505 20.4584 35.7905 17.6985 34.2712L11.6985 35.9587Z" fill="rgb(37,211,102)" fill-rule="nonzero" />
	<path id="Vector" d="M11.6985 35.9587L13.011 29.865C11.3241 27.2042 10.666 24.0193 11.1602 20.9079C11.6545 17.7964 13.2671 14.9722 15.6955 12.9651C18.1239 10.9581 21.2013 9.90611 24.3502 10.0066C27.499 10.1071 30.503 11.3531 32.7986 13.5109C35.0941 15.6687 36.5234 18.5899 36.8182 21.7266C37.1131 24.8632 36.2533 27.9997 34.4002 30.5475C32.547 33.0953 29.8279 34.8794 26.7529 35.565C23.6779 36.2505 20.4584 35.7905 17.6985 34.2712L11.6985 35.9587Z" fill="rgb(37,37,37)" fill-rule="nonzero" />
	<path id="Vector" d="M32.4508 221.893C14.4567 193.512 7.43714 159.539 12.7091 126.35C17.9812 93.1615 35.1824 63.0367 61.0856 41.6281C86.9888 20.2195 119.814 8.99848 153.402 10.0703C186.99 11.142 219.032 24.433 243.518 47.4494C268.004 70.4659 283.249 101.626 286.395 135.084C289.54 168.541 280.369 201.997 260.602 229.173C240.835 256.35 211.831 275.38 179.031 282.693C146.231 290.006 111.89 285.099 82.4508 268.893L18.4508 286.893L32.4508 221.893Z" fill-rule="nonzero" stroke="rgb(255,255,255)" stroke-width="2.000000" />
	<path id="Vector" d="M29.042 24.7088C28.7608 24.5213 28.4795 24.4276 28.1983 24.8026L27.0733 26.3026C26.792 26.4901 26.6045 26.5838 26.2295 26.3963C24.8233 25.6463 22.8545 24.8026 21.167 21.9901C21.0733 21.6151 21.2608 21.4276 21.4483 21.2401L22.292 19.9276C22.4795 19.7401 22.3858 19.5526 22.292 19.3651L21.167 16.6463C20.8858 15.8963 20.6045 15.9901 20.3233 15.9901L19.5733 15.9901C19.3858 15.9901 19.0108 16.0838 18.6358 16.4588C16.5733 18.5213 17.417 21.4276 18.917 23.3026C19.1983 23.6776 21.0733 27.0526 25.1045 28.8338C28.1045 30.1463 28.7608 29.9588 29.6045 29.7713C30.6358 29.6776 31.667 28.8338 32.1358 27.9901C32.2295 27.7088 32.6983 26.4901 32.3233 26.3026" fill="rgb(255,255,255)" fill-rule="nonzero" />
</svg>
